<?xml version="1.0" encoding="utf-8"?>
<!-- Generator: Adobe Illustrator 21.1.0, SVG Export Plug-In . SVG Version: 6.00 Build 0)  -->
<svg version="1.1" id="Layer_1" xmlns="http://www.w3.org/2000/svg" xmlns:xlink="http://www.w3.org/1999/xlink" x="0px" y="0px"
	 viewBox="0 0 134.9 73.8" style="enable-background:new 0 0 134.9 73.8;" xml:space="preserve">
<style type="text/css">
	.st0{fill:#EF4135;}
	.st1{fill:#F7901E;}
</style>
<g>
	<g>
		<path class="st0" d="M0.5,34.2L0,33.7l6.9-6.9l0.5,0.5c1.7,1.7,4.9,2.4,7.8,2.4l0,0c1.7,0,2.9-0.3,3.6-0.8l0,0c0.7-0.5,1-1,1-1.9
			l0,0c0-0.8-0.2-1.3-0.5-1.7l0,0c-0.3-0.3-0.9-0.7-2.1-0.8l0,0L12.7,24c-3.4-0.5-6.1-1.6-7.9-3.5l0,0c-1.9-1.9-2.8-4.7-2.8-8l0,0
			c0-3.6,1.4-6.7,3.9-9l0,0C8.4,1.3,12,0,16.4,0l0,0c5.4,0,9.7,1.3,13.1,4.7l0,0L30,5.2l-6.8,6.8l-0.5-0.5c-1.9-1.9-4.3-2-5.9-2l0,0
			c-0.2,0-0.4,0-0.6,0l0,0c-2.9,0-3.8,1.5-3.8,2.8l0,0c0,0.3,0.1,0.8,0.5,1.2l0,0c0.4,0.4,1,0.8,2.2,0.9l0,0l4.5,0.6
			c3.4,0.5,6,1.6,7.7,3.3l0,0c2.2,2.1,3,5.1,3,8.7l0,0c0,4-1.8,7.2-4.5,9.3l0,0c-2.8,2.1-6.5,3.2-10.6,3.2l0,0v-0.7v-0.7
			c7.7,0,13.7-3.9,13.7-11l0,0c0-3.4-0.8-5.9-2.6-7.7l0,0c-1.4-1.4-3.7-2.4-6.9-2.9l0,0l-4.5-0.6c-1.4-0.2-2.4-0.7-3-1.3l0,0
			c-0.7-0.7-0.9-1.6-0.9-2.2l0,0c0-1,0.4-2.1,1.3-2.9l0,0C13.1,8.5,14.4,8,16.1,8l0,0c0.2,0,0.4,0,0.6,0l0,0c1.6,0,4.2,0.1,6.4,1.9
			l0,0L28,5.2c-3-2.7-6.6-3.8-11.6-3.8l0,0C8.2,1.4,3.5,6.1,3.5,12.5l0,0c0,3.1,0.8,5.4,2.4,7l0,0c1.5,1.6,3.9,2.6,7.1,3.1l0,0
			l4.5,0.6c1.3,0.2,2.2,0.6,2.9,1.2l0,0c0.7,0.7,0.9,1.7,0.9,2.7l0,0c0,1.3-0.6,2.4-1.6,3.1l0,0c-1.1,0.7-2.5,1-4.4,1l0,0
			c-2.9,0-6.1-0.6-8.3-2.4l0,0L2,33.7c3.5,3.3,7.8,4.2,13.2,4.2l0,0v0.7v0.7c0,0,0,0-0.1,0l0,0C9.3,39.3,4.4,38.2,0.5,34.2L0.5,34.2
			z"/>
	</g>
	<g>
		<path class="st0" d="M56.9,39v-0.7l0.6-0.3l-0.6,0.3V39h-0.4l-8.3-14.8l-2.3,2.7V39H35.4V0.3h10.5v11.9l9.8-11.9h13.1L55.3,16.2
			L68.8,39H56.9L56.9,39z M66.4,37.6L53.6,16L65.7,1.7h-9.4L44.5,16.2V1.7h-7.7v35.9h7.7V26.4l4-4.6l8.9,15.8H66.4L66.4,37.6z"/>
	</g>
	<g>
		<path class="st0" d="M71.2,39V0.3h16.2c4,0,7.2,1.1,9.3,3.2l0,0c2.2,2,3.3,5,3.3,8.3l0,0c0,3.8-2.1,6.1-3.6,7.3l0,0
			c1.7,1.2,4.1,3.5,4.1,8.2l0,0c0,3.7-1.3,6.7-3.6,8.7l0,0c-2.2,2-5.3,3-8.8,3l0,0v-0.7v-0.7C94.5,37.6,99,34.1,99,27.3l0,0
			c0-4.9-2.8-6.6-4.3-7.5l0,0l-0.9-0.6l0.9-0.6c1.1-0.7,3.8-2.9,3.8-6.8l0,0c-0.1-6.1-3.7-10-11.2-10.1l0,0H72.6l0,35.9h15.5v0.7V39
			H71.2L71.2,39z M87.2,30.8h-6.9v-7.9h6.9v0.7v0.7h-5.5v5.1h5.5c2.1,0,2.6-1.2,2.7-2.6l0,0c-0.1-1.4-0.5-2.5-2.7-2.5l0,0v-0.7v-0.7
			c1.4,0,2.5,0.5,3.2,1.3l0,0c0.7,0.8,0.9,1.8,0.9,2.7l0,0c0,0.9-0.2,1.9-0.9,2.7l0,0C89.7,30.3,88.7,30.8,87.2,30.8L87.2,30.8
			C87.3,30.8,87.2,30.8,87.2,30.8L87.2,30.8z M86.8,16h-6.4V8.5h6.4v0.7v0.7h-5v4.7h5c2.2-0.1,2.5-1.1,2.6-2.3l0,0
			c-0.1-1.2-0.4-2.3-2.6-2.3l0,0V9.2V8.5c1.4,0,2.5,0.5,3.1,1.2l0,0c0.7,0.7,0.9,1.7,0.9,2.5l0,0c0,0.9-0.2,1.8-0.9,2.5l0,0
			C89.2,15.6,88.2,16,86.8,16L86.8,16C86.8,16,86.8,16,86.8,16L86.8,16z"/>
	</g>
	<g>
		<path class="st0" d="M119.6,39.3c-4.5,0-8-1.6-10.9-4.4l0,0c-3.9-3.9-4-8.9-4-14l0,0c0-0.4,0-0.8,0-1.2l0,0c0-0.4,0-0.8,0-1.2l0,0
			c0-5.1,0.1-10.2,4-14l0,0c2.8-2.8,6.2-4.4,10.9-4.4l0,0c9.9,0,14.4,6.6,15.3,13l0,0l0.1,0.8h-10.6l-0.1-0.5
			c-0.8-2.6-1.7-3.6-4.7-3.7l0,0c-1.5,0-2.5,0.6-3.1,1.3l0,0c-0.7,0.9-1.2,1.9-1.2,8.7l0,0c0,6.8,0.5,7.9,1.2,8.8l0,0
			c0.5,0.7,1.6,1.3,3.1,1.3l0,0c1.8,0,2.9-0.5,3.6-1.3l0,0c0.8-0.8,1.2-2.1,1.2-3.3l0,0h-5.5v-9.1h16V22c0,6.1-1,9.9-4,12.9l0,0l0,0
			C127.6,38.4,123.8,39.3,119.6,39.3L119.6,39.3C119.6,39.3,119.6,39.3,119.6,39.3L119.6,39.3z M109.7,5.4c-3.4,3.4-3.6,7.9-3.6,13
			l0,0c0,0.4,0,0.8,0,1.2l0,0c0,0.4,0,0.8,0,1.2l0,0c0,5.2,0.2,9.6,3.6,13l0,0c2.6,2.6,5.7,4,9.9,4l0,0c4,0,7.3-0.8,10.3-4l0,0
			l0.5,0.5l-0.5-0.5c2.7-2.7,3.6-5.9,3.6-11.9l0,0v-4.5h-13.2v6.3h5.5v0.7V25c0,1.5-0.4,3.2-1.6,4.5l0,0c-1,1.1-2.5,1.7-4.6,1.7l0,0
			c-1.9,0-3.3-0.8-4.2-1.8l0,0c-1-1.3-1.5-2.8-1.5-9.6l0,0c0-6.8,0.5-8.3,1.5-9.6l0,0c0.8-1.1,2.3-1.9,4.2-1.9l0,0
			c3.2-0.1,5.1,1.5,5.9,4.2l0,0h7.8c-1.1-5.6-4.9-10.9-13.7-11l0,0C115.2,1.4,112.3,2.8,109.7,5.4L109.7,5.4z"/>
	</g>
</g>
<g>
	<g>
		<path class="st1" d="M12.3,66c-1,1.1-2.6,2-5,2c-2.4,0-4-0.9-5-2c-1.5-1.5-1.8-3.3-1.8-6.3c0-2.9,0.4-4.7,1.8-6.2c1-1,2.6-2,5-2
			c2.4,0,4,0.9,5,2c1.5,1.5,1.8,3.3,1.8,6.2C14.1,62.7,13.7,64.5,12.3,66z M9.2,55.9c-0.5-0.5-1.1-0.7-1.9-0.7
			c-0.8,0-1.4,0.2-1.9,0.7c-0.8,0.8-0.9,2.2-0.9,3.9s0.1,3.1,0.9,3.9c0.5,0.5,1,0.7,1.9,0.7c0.8,0,1.4-0.2,1.9-0.7
			c0.8-0.8,0.9-2.3,0.9-3.9S10,56.7,9.2,55.9z"/>
	</g>
	<g>
		<path class="st1" d="M27,67.8v-9.7c0-2.2-1.4-2.9-2.7-2.9c-1.3,0-2.7,0.7-2.7,2.9v9.7h-4V51.7h3.9v1.5c1-1.1,2.5-1.7,4-1.7
			c1.6,0,2.9,0.5,3.8,1.4c1.3,1.3,1.6,2.8,1.6,4.6v10.3H27z"/>
	</g>
	<g>
		<path class="st1" d="M43.9,67.8v-1.5c-1.1,1.2-2.3,1.7-4,1.7c-1.6,0-3.1-0.6-4-1.5c-1.6-1.6-1.6-4.4-1.6-6.8s0-5.2,1.6-6.8
			c0.9-0.9,2.3-1.5,3.9-1.5c1.6,0,2.9,0.4,3.9,1.6v-7.3h4v22H43.9z M41,55.1c-2.4,0-2.7,2-2.7,4.6c0,2.6,0.3,4.6,2.7,4.6
			c2.4,0,2.7-2,2.7-4.6C43.8,57.1,43.5,55.1,41,55.1z"/>
	</g>
	<g>
		<path class="st1" d="M55.1,61c0,2.1,1.3,3.6,3.5,3.6c1.8,0,2.6-0.5,3.6-1.5l2.4,2.4c-1.6,1.6-3.2,2.5-6.1,2.5
			c-3.8,0-7.4-1.7-7.4-8.2c0-5.2,2.8-8.2,7-8.2c4.5,0,7,3.3,7,7.7V61H55.1z M60.9,56.5c-0.4-1-1.3-1.7-2.7-1.7
			c-1.4,0-2.3,0.7-2.7,1.7c-0.2,0.6-0.3,1-0.4,1.7h6.1C61.2,57.6,61.1,57.1,60.9,56.5z"/>
	</g>
	<g>
		<path class="st1" d="M77.3,56.1c-0.6-0.6-1.1-1-2.1-1c-1.2,0-2.6,0.9-2.6,3v9.7h-4V51.7h3.9v1.5c0.8-0.9,2.3-1.7,4-1.7
			c1.6,0,2.7,0.4,3.8,1.5L77.3,56.1z"/>
	</g>
	<g>
		<path class="st1" d="M98.5,67.8h-3.3l-3.4-10.1l-3.4,10.1h-3.3l-4.9-16.1h4.3l2.6,9.9l3.3-9.9h2.9l3.3,9.9l2.6-9.9h4.2L98.5,67.8z
			"/>
	</g>
	<g>
		<path class="st1" d="M105.4,49v-3.3h4.1V49H105.4z M105.5,67.8V51.7h4v16.1H105.5z"/>
	</g>
	<g>
		<path class="st1" d="M112.9,73.8h-2.3v-3.4h1.5c1,0,1.4-0.5,1.4-1.5V51.7h4v17.5C117.6,71.5,116.3,73.8,112.9,73.8z M113.6,49
			v-3.3h4.1V49H113.6z"/>
	</g>
	<g>
		<path class="st1" d="M127.1,68c-2.5,0-4.8-0.3-6.9-2.3l2.6-2.6c1.3,1.3,3.1,1.5,4.3,1.5c1.4,0,2.8-0.5,2.8-1.7
			c0-0.8-0.4-1.4-1.7-1.5l-2.5-0.2c-2.9-0.3-4.7-1.5-4.7-4.5c0-3.3,2.9-5.1,6.2-5.1c2.5,0,4.6,0.4,6.1,1.9l-2.5,2.5
			c-0.9-0.8-2.3-1.1-3.7-1.1c-1.6,0-2.3,0.7-2.3,1.5c0,0.6,0.2,1.3,1.7,1.4l2.5,0.2c3.2,0.3,4.8,2,4.8,4.7
			C133.9,66.3,130.9,68,127.1,68z"/>
	</g>
</g>
</svg>
