<?xml version="1.0" encoding="UTF-8"?>
<svg xmlns="http://www.w3.org/2000/svg" version="1.1" viewBox="0 0 629.29 402.52">
  <path fill="#fc0" d="M460.21,214.71l32.59-19.58,9.28-66.02,26.17,85.6,45.13-27.12L626.45,2.48c-19.58,4.41-38.58,10.36-56.86,17.72l-24.73,116.34-17-96.43c-18.12,10.08-35.31,21.62-51.41,34.48l-11.09,78.85-19.72-51.36c-12.78,12.75-24.65,26.43-35.48,40.92-.02.05-.04.1-.06.16l50.1,71.55Z"/>
  <g fill="#1d1d1b">
    <g>
      <path d="M20.25,231.64l3.4,47.6,21.4-47.6h15.2l8,47.5,17.5-47.5h17l-29.3,73.1h-15.7l-8.7-48-22.3,48h-14.9L3.75,231.64h16.5Z"/>
      <path d="M122.84,255.35l-6.9,49.4h-13.8l6.9-49.4h13.8ZM109.34,239.34c0-5.3,4-9.5,9.7-9.5,4.7,0,8.3,3.3,8.3,8,0,5.4-4.1,9.5-9.7,9.5-4.7,0-8.3-3.2-8.3-8Z"/>
      <path d="M179.84,272.75l-4.5,32h-14.3l4-28.7c.9-6.3-1.8-9.4-6.4-9.4-5.7,0-9,3.9-9.8,9.6l-4,28.5h-14.2l6.9-49.4h12.7l-.1,5.2c3.2-4.4,8.9-6.9,15-6.9,11.2,0,16.3,7.7,14.7,19.1Z"/>
      <path d="M245.34,230.84l-10.4,73.9h-12.7l.1-4.3c-3.1,3.5-7.8,5.5-13.6,5.5-11.1,0-19.6-7.6-19.6-22.7,0-16.7,10.3-29.5,24.9-29.5,5.7,0,10.3,2.1,13.2,5.4l3.9-28.3h14.2ZM224.54,277.45c0-7.6-3.6-11.8-8.8-11.8-7.3,0-12.1,8-12.1,16.6,0,7.6,3.7,11.8,8.9,11.8,7.2,0,12-7.7,12-16.6Z"/>
      <path d="M262.94,284.45c-.2,5.6,3.6,9.8,10.2,9.8,5.3,0,9.4-2.8,10.8-6.9l11.7,4c-3.5,9.1-12.4,14.6-23.3,14.6-13.5,0-23.1-8.5-23.1-24.1s10-28.2,25.9-28.2,23.5,12.2,21.5,26.3c-.2,1.4-.4,2.3-1.1,4.5h-32.6ZM264.34,274.15h18.8c.1-5.3-3-8.8-8.7-8.8-5.4,0-9.3,3.3-10.1,8.8Z"/>
      <path d="M333.44,270.35c.1-3.4-2.2-5.6-5.9-5.6-3.5,0-5.8,2-5.8,4.6s2.1,3.3,4.7,4l6.1,1.5c7.4,1.9,11.6,7.1,11.6,14,0,10.7-9.6,17.1-21.5,17.1-11,0-18.5-5.5-18.5-15l12.1-1.9c-.2,3.4,2.4,5.7,7,5.7,3.9,0,6.5-1.8,6.5-4.6,0-1.9-1.2-3.2-3.7-3.9l-6.9-2c-8.4-2.5-11.8-7.2-11.8-13.5,0-10,8-17.1,20.4-17.1,10.7,0,16.9,5.5,17.8,14l-12.1,2.7Z"/>
      <path d="M402.24,273.25l-4.4,31.5h-14.2l4-28.4c.9-6.5-1.9-9.7-6.5-9.7-5.7,0-8.9,4-9.7,9.9l-4,28.2h-14.3l10.4-73.9h14.2l-3.9,28.1c3.5-3.5,8.3-5.3,13.5-5.3,11.2,0,16.5,7.9,14.9,19.6Z"/>
      <path d="M425.74,284.45c-.2,5.6,3.6,9.8,10.2,9.8,5.3,0,9.4-2.8,10.8-6.9l11.7,4c-3.5,9.1-12.4,14.6-23.3,14.6-13.5,0-23.1-8.5-23.1-24.1s10-28.2,25.9-28.2,23.5,12.2,21.5,26.3c-.2,1.4-.4,2.3-1.1,4.5h-32.6ZM427.14,274.15h18.8c.1-5.3-3-8.8-8.7-8.8-5.4,0-9.3,3.3-10.1,8.8Z"/>
      <path d="M489.24,255.35l-6.9,49.4h-13.8l6.9-49.4h13.8ZM475.74,239.34c0-5.3,4-9.5,9.7-9.5,4.7,0,8.3,3.3,8.3,8,0,5.4-4.1,9.5-9.7,9.5-4.7,0-8.3-3.2-8.3-8Z"/>
      <path d="M573.04,272.95l-4.4,31.8h-14.2l4.1-29.9c.8-6.1-1.8-8.5-5.8-8.5-5.1,0-7.9,3.9-8.6,8.6l-4.1,29.8h-14.4l4.2-29.9c.8-6-2.2-8.5-6.1-8.5-5.1,0-7.7,4.1-8.3,8.6l-4.1,29.8h-14.4l7-49.5h12.6l.1,4.8c2.1-3.5,6.6-6.4,12.7-6.4,6.9,0,11.9,3.3,13.4,9.1,2.8-5.9,9-9.1,15.8-9.1,10.5,0,16.1,7.5,14.5,19.3Z"/>
    </g>
    <g>
      <path d="M35.34,179.06l-2.86,20.48h-8.65l2.6-18.59c.65-4.49-1.3-6.63-4.49-6.63-4.03,0-6.24,2.79-6.83,6.89l-2.6,18.33H3.75l6.76-48.04h8.71l-2.6,18.53c2.28-2.47,5.53-3.71,9.04-3.71,7.28,0,10.73,5.13,9.69,12.74Z"/>
      <path d="M57.63,166.38c9.17,0,15.21,6.37,15.21,15.86s-6.63,18.14-16.96,18.14c-9.17,0-15.21-6.24-15.21-15.79s6.7-18.2,16.97-18.2ZM56.07,192.64c4.81,0,7.93-4.62,7.93-10.21,0-5.27-2.54-8.25-6.5-8.25-4.81,0-8,4.62-8,10.27,0,5.2,2.6,8.19,6.57,8.19Z"/>
      <path d="M111.65,167.42l-4.55,32.44c-1.37,9.49-7.87,14.89-17.16,14.89-8.52,0-14.37-4.49-15.28-10.99l7.15-2.93c.84,4.16,3.96,6.31,8.12,6.31,4.62,0,7.8-2.67,8.45-7.48l.65-4.42c-1.88,2.28-4.88,3.71-8.84,3.71-7.8,0-12.35-5.59-12.35-14.04,0-10.59,6.17-18.53,15.4-18.53,4.42,0,8,1.88,9.62,4.68l.91-3.64h7.87ZM100.99,181.33c0-4.88-2.28-7.67-6.05-7.67-4.75,0-8.12,4.62-8.12,10.4,0,4.94,2.34,7.61,6.04,7.61,4.75,0,8.13-4.36,8.13-10.34Z"/>
      <path d="M146.29,183.28c-.13.91-.33,1.56-.71,2.93h-21.52c-.26,4.09,2.34,6.96,6.89,6.96,3.71,0,6.5-1.95,7.48-4.81l7.15,2.54c-2.28,5.98-8.06,9.43-15.08,9.43-8.78,0-14.82-5.53-14.82-15.54s6.44-18.46,16.77-18.46,15.08,7.8,13.85,16.96ZM124.9,179.9h13.07c.26-3.83-1.95-6.37-5.98-6.37-3.77,0-6.5,2.47-7.09,6.37Z"/>
      <path d="M169.1,177.04c.13-2.34-1.5-3.9-4.09-3.9s-4.1,1.43-4.1,3.31c0,1.76,1.37,2.34,3.19,2.79l4.1,1.04c4.81,1.23,7.41,4.55,7.41,8.97,0,6.96-6.11,11.05-13.78,11.05-7.15,0-11.96-3.58-11.89-9.75l7.41-1.17c-.13,2.41,1.62,4.03,4.81,4.03,2.79,0,4.68-1.3,4.68-3.32,0-1.36-.91-2.27-2.6-2.73l-4.62-1.3c-5.33-1.62-7.54-4.68-7.54-8.71,0-6.5,5.13-11.05,13.07-11.05,6.89,0,10.92,3.58,11.44,9.1l-7.48,1.62Z"/>
      <path d="M180.67,184.52c0-10.08,6.7-18.2,17.16-18.2,7.47,0,13,4.22,14.17,10.92l-7.67,2.47c-.52-3.31-3.12-5.52-6.57-5.52-4.88,0-8.25,4.16-8.25,9.95,0,5.2,2.73,8.38,6.96,8.38,3.45,0,6.24-2.08,7.08-5.13l7.48,2.73c-2.02,6.57-8.06,10.21-15.15,10.21-9.16,0-15.21-6.24-15.21-15.8Z"/>
      <path d="M247.1,179.06l-2.86,20.48h-8.64l2.6-18.59c.65-4.49-1.3-6.63-4.49-6.63-4.03,0-6.24,2.79-6.83,6.89l-2.6,18.33h-8.78l6.76-48.04h8.71l-2.6,18.53c2.28-2.47,5.53-3.71,9.04-3.71,7.28,0,10.73,5.13,9.69,12.74Z"/>
      <path d="M269.4,166.38c9.17,0,15.21,6.37,15.21,15.86s-6.63,18.14-16.97,18.14c-9.17,0-15.21-6.24-15.21-15.79s6.7-18.2,16.97-18.2ZM267.84,192.64c4.81,0,7.93-4.62,7.93-10.21,0-5.27-2.54-8.25-6.5-8.25-4.81,0-8,4.62-8,10.27,0,5.2,2.6,8.19,6.56,8.19Z"/>
      <path d="M306.38,166.38c9.17,0,15.21,6.37,15.21,15.86s-6.63,18.14-16.97,18.14c-9.17,0-15.21-6.24-15.21-15.79s6.7-18.2,16.97-18.2ZM304.82,192.64c4.81,0,7.93-4.62,7.93-10.21,0-5.27-2.54-8.25-6.5-8.25-4.81,0-8,4.62-8,10.27,0,5.2,2.6,8.19,6.56,8.19Z"/>
      <path d="M332.12,151.5h8.52l-6.76,48.04h-8.52l6.76-48.04Z"/>
    </g>
    <g>
      <path d="M168.95,337.08h13c12.94,0,20.61,8.19,20.61,21.13,0,15.41-10.6,26.39-26.33,26.39h-13.98l6.7-47.52ZM176.1,378.49c11.64,0,19.5-8.38,19.5-20.02,0-9.56-5.2-15.28-13.91-15.28h-7.15l-4.94,35.3h6.5Z"/>
      <path d="M216.85,352.49l-4.49,32.11h-6.11l4.49-32.11h6.11ZM211.26,340.4c0-2.47,1.88-4.42,4.62-4.42,2.21,0,3.96,1.56,3.96,3.83,0,2.6-1.95,4.49-4.62,4.49-2.14,0-3.96-1.56-3.96-3.9Z"/>
      <path d="M221.4,370.04c0-10.21,6.83-18.66,17.09-18.66,7.15,0,12.48,4.09,13.59,10.59l-5.66,1.75c-.46-3.83-3.45-6.69-7.93-6.69-6.37,0-10.72,5.39-10.72,12.74,0,6.24,3.25,10.08,8.51,10.08,4.55,0,7.93-2.73,9.04-6.44l5.52,1.95c-2.01,6.31-7.93,10.14-14.88,10.14-8.65,0-14.56-6.04-14.56-15.47Z"/>
      <path d="M285.89,363.99l-2.92,20.61h-6.24l2.73-19.24c.78-5.33-1.62-8.19-5.72-8.19-5.27,0-8.45,3.9-9.17,9.04l-2.6,18.33h-6.24l6.76-47.97h6.17l-2.67,19.44c2.34-2.99,5.92-4.61,10.08-4.61,7.15,0,10.86,5.07,9.82,12.61Z"/>
      <path d="M302.98,374.4c-.58,4.09,1.11,5.46,4.16,5.46,1.04,0,2.41-.13,3.83-.33l-.71,4.94c-1.69.52-3.96.78-5.53.78-6.04,0-8.84-4.03-8-10.4l2.41-16.97h-7.48l.78-5.4h7.41l1.24-8.65,6.24-.46-1.3,9.1h8.65l-.72,5.4h-8.65l-2.34,16.51Z"/>
      <path d="M347.05,367.96c-.13.97-.32,1.82-.71,2.92h-23.14c-.46,6.11,2.93,9.43,8.45,9.43,4.74,0,7.99-2.54,9.36-6.04l5.2,1.88c-2.54,6.11-8.19,9.36-14.89,9.36-8.78,0-14.17-5.66-14.17-15.15,0-10.47,6.37-18.98,16.64-18.98,9.49,0,14.5,7.41,13.26,16.58ZM323.78,366.01h17.36c.58-5.66-2.34-9.36-7.67-9.36s-8.9,3.83-9.68,9.36Z"/>
      <path d="M373.18,352.49l-.78,6.04c-.91-.19-2.08-.26-2.99-.26-5.14,0-8.19,2.79-8.97,8.71l-2.54,17.62h-6.18l4.49-32.11h5.72l-.26,4.36c1.62-3.06,4.94-4.68,8.52-4.68,1.11,0,2.21.2,2.99.33Z"/>
      <path d="M423.1,365.95c0,11.5-6.89,19.57-16.32,19.57-4.42,0-7.87-2.08-9.29-5.46l-.97,4.55h-5.53l6.76-48.04h6.18l-2.67,19.31c2.28-2.73,5.98-4.42,10.08-4.42,7.28,0,11.77,5.72,11.77,14.5ZM416.73,366.53c0-6.24-2.66-9.82-7.21-9.82-5.39,0-10.34,5.26-10.34,13.84,0,6.57,2.93,9.69,7.15,9.69,5.66,0,10.4-5.66,10.4-13.71Z"/>
      <path d="M438.18,352.49l-4.48,32.11h-6.11l4.49-32.11h6.11ZM432.6,340.4c0-2.47,1.88-4.42,4.62-4.42,2.21,0,3.96,1.56,3.96,3.83,0,2.6-1.95,4.49-4.62,4.49-2.14,0-3.96-1.56-3.96-3.9Z"/>
      <path d="M435.06,399.03l.71-5.2c1.11.13,2.34.26,3.12.26,4.29,0,5.92-2.41,6.44-5.85l5.07-35.75h6.17l-5.13,36.34c-1.04,7.54-5.85,10.79-12.29,10.79-1.37,0-2.86-.2-4.1-.58ZM450.79,340.4c0-2.47,1.82-4.42,4.49-4.42,2.21,0,3.96,1.56,3.96,3.83,0,2.6-1.95,4.49-4.55,4.49-2.21,0-3.9-1.56-3.9-3.9Z"/>
      <path d="M469.84,399.03l.71-5.2c1.11.13,2.34.26,3.12.26,4.29,0,5.92-2.41,6.44-5.85l5.07-35.75h6.17l-5.13,36.34c-1.04,7.54-5.85,10.79-12.29,10.79-1.37,0-2.86-.2-4.1-.58ZM485.57,340.4c0-2.47,1.82-4.42,4.49-4.42,2.21,0,3.96,1.56,3.96,3.83,0,2.6-1.95,4.49-4.55,4.49-2.21,0-3.9-1.56-3.9-3.9Z"/>
      <path d="M512.29,351.38c8.78,0,14.56,6.3,14.56,15.67s-6.31,18.46-16.64,18.46c-8.78,0-14.5-6.18-14.5-15.54s6.3-18.59,16.58-18.59ZM510.27,379.92c5.91,0,10.21-5.53,10.21-12.68,0-6.31-3.19-10.27-8.19-10.27-5.92,0-10.21,5.59-10.21,12.87,0,6.24,3.19,10.08,8.19,10.08Z"/>
      <path d="M562.01,352.55l-4.48,32.05h-5.59l.39-4.36c-1.95,3.19-5.72,5.27-10.14,5.27-7.21,0-10.92-5.14-9.88-12.81l2.86-20.22h6.18l-2.73,19.5c-.71,5.13,1.82,7.93,6.11,7.93,4.81,0,7.74-3.38,8.52-8.91l2.6-18.46h6.17Z"/>
    </g>
  </g>
</svg>